<svg width="479" height="375" viewBox="0 0 479 375" fill="none" xmlns="http://www.w3.org/2000/svg">
<path d="M44.0316 184.952C32.0804 218.821 41.2748 255.328 70.1815 275.763C82.3174 284.343 96.0998 287.852 110.564 288.384C125.611 288.937 130.649 298.92 130.946 307.736C131.309 318.479 121.83 327.357 109.813 327.135C87.4739 326.722 66.9488 320.217 48.5428 307.384C20.5113 287.84 4.58909 260.712 0.804726 227.118C-5.81649 168.342 28.8854 116.206 87.7785 102.893C95.0679 101.245 102.599 100.216 110.047 100.902C114.664 101.327 116.007 99.4148 117.317 95.659C126.402 69.6128 141.067 47.2803 162.666 29.9163C184.668 12.2295 209.79 2.43585 238.097 0.412246C267.005 -1.65443 294.005 3.98793 318.975 18.7294C344.044 33.5293 361.696 54.9715 373.988 81.0799C378.396 90.4414 381.822 100.177 383.928 110.301C384.558 113.326 385.747 114.204 388.698 114.722C424.031 120.92 451.428 138.796 467.219 171.494C498.294 235.841 462.755 308.764 393.618 324.244C384.656 326.251 375.597 327.064 366.415 327.289C353.166 327.615 339.96 312.154 348.134 297.627C351.72 291.253 357.242 288.572 364.181 288.577C378.522 288.587 392.385 286.646 405.014 279.292C424.806 267.768 436.729 250.992 439.652 227.975C444.326 191.165 418.986 157.868 380.422 152.381C376.172 151.776 371.767 152.321 367.438 152.2C356.512 151.894 349.626 145.735 348.533 134.872C345.823 107.927 336.151 84.1181 316.188 65.4102C293.7 44.3366 266.758 36.5407 236.206 39.9876C193.238 44.8354 158.728 78.5644 150.732 121.303C149.06 130.238 146.75 137.776 137.558 141.261C131.816 143.438 126.042 142.091 120.332 141.13C86.1312 135.372 57.0735 155.523 45.0764 182.272C44.7371 183.029 44.4538 183.81 44.0316 184.952Z" fill="black"/>
<path d="M231.176 298.602C231.084 317.244 231.129 346.62 231.164 367.519C231.171 371.38 234.303 374.5 238.164 374.5H245.5C249.366 374.5 252.505 371.372 252.555 367.507C252.808 347.914 253.845 310.22 253.816 296.773C253.811 294.361 255.434 293.298 257.14 292.194C278.669 278.247 300.206 264.313 321.695 250.305C323.402 249.192 324.796 248.877 326.737 249.703C336.086 253.681 344.703 252.141 352.275 245.543C360.195 238.641 362.414 229.567 360.287 219.681C357.281 205.705 345.98 198.349 331.163 200.011C319.706 201.296 310.162 212.698 310.284 225.553C310.321 229.413 309.034 231.577 305.857 233.584C290.084 243.546 274.459 253.74 258.757 263.815C258.438 264.02 258.122 264.259 257.792 264.487C255.633 265.977 253.795 263.204 253.795 260.58L253.795 260.157C253.794 241.658 253.897 223.157 253.713 204.66C253.672 200.477 254.742 197.724 258.295 195.076C267.404 188.288 270.121 176.577 265.91 165.414C262.148 155.442 251.925 148.615 241.356 149.017C230.329 149.436 221.128 156.954 217.857 168.22C214.838 178.617 218.692 189.976 227.707 195.938C230.509 197.791 231.194 199.864 231.178 202.948C231.076 222.446 231.142 241.946 231.089 261.445C231.081 264.508 228.217 265.386 225.626 263.754C225.431 263.631 225.237 263.507 225.044 263.38C211.552 254.499 198.208 245.384 184.54 236.785C178.537 233.009 172.833 229.666 174.725 221.189C174.792 220.889 174.636 220.535 174.568 220.209C171.53 205.681 157.454 196.73 143.288 200.315C128.862 203.966 120.636 219.472 125.316 234.192C129.704 247.997 144.538 255.282 158.186 250.034C160.96 248.967 162.766 249.436 165.015 250.925C185.844 264.716 206.702 278.462 227.631 292.101C230.168 293.754 231.191 295.587 231.176 298.602Z" fill="black"/>
</svg>
